<?xml version="1.0" standalone="no"?>
<!DOCTYPE svg PUBLIC "-//W3C//DTD SVG 20010904//EN"
 "http://www.w3.org/TR/2001/REC-SVG-20010904/DTD/svg10.dtd">
<svg version="1.0" xmlns="http://www.w3.org/2000/svg"
 width="193.000000pt" height="251.000000pt" viewBox="0 0 193.000000 251.000000"
 preserveAspectRatio="xMidYMid meet">
<metadata>
Created by potrace 1.16, written by Peter Selinger 2001-2019
</metadata>
<g transform="translate(0.000000,251.000000) scale(0.100000,-0.100000)"
fill="#000000" stroke="none">
<path d="M955 2397 c-305 -212 -555 -570 -644 -925 -42 -169 -56 -315 -41
-448 51 -478 319 -843 689 -939 81 -21 237 -21 315 0 205 54 381 237 431 446
19 82 19 255 0 355 -40 211 -163 467 -316 659 l-59 75 0 104 c0 175 -45 357
-132 531 -65 129 -116 205 -136 205 -10 -1 -57 -29 -107 -63z m133 -39 c69
-101 147 -290 178 -434 22 -104 22 -304 1 -401 -57 -252 -211 -475 -457 -662
-78 -60 -142 -101 -155 -101 -14 0 3 153 31 270 40 173 122 372 234 571 49 87
56 119 27 119 -18 0 -125 -188 -191 -337 -57 -128 -117 -314 -138 -428 -7 -38
-13 -142 -13 -230 0 -189 15 -260 81 -392 24 -48 42 -89 39 -91 -8 -8 -183
175 -218 230 -125 191 -197 434 -197 663 0 353 180 758 464 1047 89 90 250
216 278 218 4 0 20 -19 36 -42z m344 -953 c113 -170 197 -370 232 -554 51
-270 -40 -512 -246 -650 -126 -85 -302 -109 -454 -63 -167 51 -293 245 -311
478 l-6 81 46 25 c85 48 233 167 324 261 100 104 152 175 211 293 37 74 52
116 82 234 l12 45 25 -30 c14 -17 52 -70 85 -120z"/>
<path d="M1205 646 c-150 -67 -172 -285 -37 -378 144 -99 342 4 342 177 0 80
-58 173 -127 202 -41 17 -139 16 -178 -1z m127 -36 c143 -40 174 -215 55 -304
-40 -30 -144 -30 -184 0 -48 36 -73 82 -73 136 0 76 37 130 110 162 42 18 45
19 92 6z"/>
</g>
</svg>
